<?xml version="1.0" encoding="utf-8"?>
<!-- Generator: Adobe Illustrator 22.0.1, SVG Export Plug-In . SVG Version: 6.00 Build 0)  -->
<svg version="1.1" id="Layer_1" xmlns="http://www.w3.org/2000/svg" xmlns:xlink="http://www.w3.org/1999/xlink" x="0px" y="0px"
	 viewBox="0 0 100 100" style="enable-background:new 0 0 100 100;" xml:space="preserve">
<style type="text/css">
	.st0{fill:#FFFFFF;}
</style>
<g id="vPkrht_1_">
	<g>
		<path class="st0" d="M57.4,81.6c6.2,0,12.4,0,18.6,0c0-9.9,0-19.8,0-29.7c3.7,0,7.3,0,11.1,0C74.6,40.6,62.3,29.5,49.9,18.4
			c-12.4,11.1-24.7,22.2-37,33.3c0,0.1,0.1,0.1,0.1,0.2c3.6,0,7.2,0,10.9,0c0,9.9,0,19.8,0,29.7c6.2,0,12.3,0,18.6,0
			c0-7.4,0-14.8,0-22.2c5,0,9.9,0,14.9,0C57.4,66.8,57.4,74.1,57.4,81.6z"/>
		<path class="st0" d="M57.4,81.6c0-7.4,0-14.8,0-22.2c-4.9,0-9.9,0-14.9,0c0,7.4,0,14.8,0,22.2c-6.2,0-12.3,0-18.6,0
			c0-9.9,0-19.7,0-29.7c-3.7,0-7.3,0-10.9,0c0-0.1-0.1-0.1-0.1-0.2c12.3-11.1,24.6-22.2,37-33.3c12.3,11.1,24.7,22.2,37.2,33.4
			c-3.8,0-7.4,0-11.1,0c0,9.9,0,19.8,0,29.7C69.7,81.6,63.6,81.6,57.4,81.6z"/>
	</g>
</g>
</svg>
