<svg id="Layer_1" data-name="Layer 1" xmlns="http://www.w3.org/2000/svg" xmlns:xlink="http://www.w3.org/1999/xlink" viewBox="0 0 50 50"><defs><style>.cls-1{fill:none;}.cls-2{fill:#fff;}.cls-3{fill:red;}.cls-4{clip-path:url(#clip-path);}</style><clipPath id="clip-path"><path class="cls-1" d="M18.37,56a5.61,5.61,0,0,0,0-.58c0-.14-.08-.28-.11-.42a1.23,1.23,0,0,1-.07-.32c0-.23,0-.45,0-.68a.68.68,0,0,0,0-.2c0-.25-.07-.51-.11-.76a2,2,0,0,0-.1-.54A.91.91,0,0,1,18,52a4.46,4.46,0,0,0,0-.73c0-.05-.05-.1-.08-.13a.28.28,0,0,1,0-.45.62.62,0,0,0,0-.76,3.87,3.87,0,0,1-.31-.65,1.87,1.87,0,0,1,.12-1.07c.12-.54.3-1.06.42-1.59s.18-1,.25-1.44a1.8,1.8,0,0,0-.05-.46c0-.15,0-.29-.06-.45.2,0,.27-.26.18-.71l-.18.11a.76.76,0,0,1,.08-.2,2.44,2.44,0,0,0,.3-1.52.36.36,0,0,0-.37-.31c-.48,0-1,.05-1.43.06a7.73,7.73,0,0,0-1.18,0,1,1,0,0,1-1.06-.39c-.24-.26-.56-.47-.59-.86a6.58,6.58,0,0,1-.06-1.08c.05-1,.14-2,.21-3,0-.64.08-1.28.15-1.91s.18-1.43.28-2.14q.12-.78.27-1.56a3.22,3.22,0,0,1,.16-.5c.14-.37.3-.73.41-1.11a2,2,0,0,1,1-1.16c.43-.28.88-.52,1.32-.78l1.76-1.07A2,2,0,0,1,19.7,26a1.91,1.91,0,0,0,.92-1,5.41,5.41,0,0,1,.49-.69s0-.06.07-.06c.43-.09.35-.46.41-.75a3.12,3.12,0,0,0-.35-1.87c-.07-.16-.33-.26-.53-.33s-.71-.15-1-.28a.64.64,0,0,1-.36-.89,2.44,2.44,0,0,0,.05-.39c0-.11,0-.23.05-.35a2.68,2.68,0,0,0,.11-.55A4.13,4.13,0,0,1,23,14.81a3.68,3.68,0,0,1,2.08,0,1.15,1.15,0,0,1,.73.51c0,.08.15.12.23.18a4.26,4.26,0,0,1,1.54,1.69.52.52,0,0,0,.39.29,3.08,3.08,0,0,1,.81.31.61.61,0,0,1,.25.81c0,.07-.14.12-.22.15-.25.07-.51.13-.76.18a.26.26,0,0,0-.23.28,1.81,1.81,0,0,1,0,.4.62.62,0,0,0,.15.61c.15.18.26.38.39.57a.31.31,0,0,1-.07.5.59.59,0,0,1-.17.1c-.2.07-.23.21-.2.39a2.9,2.9,0,0,1-.1,1.31,1,1,0,0,0,0,.52.65.65,0,0,1-.41.83,1.64,1.64,0,0,1-1.05.08.55.55,0,0,0-.17,0c-.14,0-.34,0-.38.12a.55.55,0,0,0,.05.43,8.1,8.1,0,0,0,1,1.27,3.23,3.23,0,0,0,.94.55c.47.21,1,.36,1.43.6a3,3,0,0,1,1.24,1.2,2.91,2.91,0,0,1,.32,1.22c.07.82.1,1.65.2,2.47a13.19,13.19,0,0,0,.29,1.39A5.14,5.14,0,0,0,32.32,36a1.64,1.64,0,0,1,.46,1.18,1.44,1.44,0,0,0,.14.77.74.74,0,0,1,0,.39,8.93,8.93,0,0,1-.25,1.43,1.16,1.16,0,0,1-.8.82.64.64,0,0,0-.26.18l-.71.62a.82.82,0,0,0-.75-.28.17.17,0,0,0-.09.11,1.11,1.11,0,0,0,.08.8,1.61,1.61,0,0,1,.06.33,3,3,0,0,0,.1.32,1.27,1.27,0,0,1,0,.26,1.6,1.6,0,0,0,0,.38,1.83,1.83,0,0,0,.32.66c.14.19.1.51.15.77a.87.87,0,0,0,.11.32c.16.22.33.44.51.65a1.85,1.85,0,0,1,.44,1.52c-.07.39-.28.76-.39,1.15s-.47,1-.4,1.51c0,.16,0,.31,0,.47A5.23,5.23,0,0,1,31,52c-.09.57-.15,1.15-.21,1.72s-.14,1.41-.2,2.11a1,1,0,0,0,0,.17h-5.5a6.6,6.6,0,0,0-.38-2.1.48.48,0,0,0-.13.21c-.06.22-.11.45-.15.67L24.19,56Z"/></clipPath></defs><title>logo lyhike</title><rect class="cls-2" x="10.4" y="13.22" width="27.01" height="27.01" transform="translate(-11.9 24.73) rotate(-45)"/><rect class="cls-3" x="10.39" y="9.56" width="27.01" height="27.01" transform="translate(-9.31 23.65) rotate(-45)"/><g class="cls-4"><rect x="10.39" y="9.56" width="27.01" height="27.01" transform="translate(-9.31 23.65) rotate(-45)"/></g></svg>