<svg xmlns="http://www.w3.org/2000/svg" xmlns:xlink="http://www.w3.org/1999/xlink" viewBox="0 0 500 200"><defs><style>.cls-1{fill:none;}.cls-2{fill:red;}.cls-3{clip-path:url(#clip-path);}.cls-4{fill:#fff;}</style><clipPath id="clip-path"><path class="cls-1" d="M65.29,163.61c0-.41,0-.82,0-1.22a6.7,6.7,0,0,0-.23-.88,2.69,2.69,0,0,1-.15-.67c0-.48.06-1,.08-1.43a2.7,2.7,0,0,0,0-.41c-.07-.54-.14-1.07-.22-1.61a6.1,6.1,0,0,0-.22-1.13,1.8,1.8,0,0,1,0-1,7.88,7.88,0,0,0,.06-1.54.4.4,0,0,0-.17-.26c-.37-.29-.33-.6-.08-.94a1.26,1.26,0,0,0,0-1.59,8,8,0,0,1-.66-1.39,3.92,3.92,0,0,1,.25-2.24c.25-1.12.63-2.22.88-3.34s.39-2,.53-3a4,4,0,0,0-.09-1c0-.3-.1-.6-.15-.94.44.11.58-.54.39-1.5l-.38.24a2.85,2.85,0,0,1,.16-.43,5,5,0,0,0,.64-3.18.77.77,0,0,0-.78-.65c-1,0-2,.1-3,.12a18.43,18.43,0,0,0-2.47,0,2.23,2.23,0,0,1-2.24-.81c-.5-.56-1.16-1-1.24-1.82a15.63,15.63,0,0,1-.12-2.27c.11-2.12.29-4.23.45-6.35.09-1.34.16-2.68.3-4,.16-1.5.38-3,.6-4.49.16-1.09.35-2.18.56-3.27a6.87,6.87,0,0,1,.34-1.06c.28-.77.62-1.53.85-2.32a4.43,4.43,0,0,1,2-2.45c.9-.58,1.86-1.07,2.78-1.62,1.24-.74,2.46-1.5,3.69-2.25.17-.1.34-.22.52-.31a4,4,0,0,0,1.94-2,10,10,0,0,1,1-1.44s.08-.12.13-.13c.91-.18.75-1,.87-1.57a6.49,6.49,0,0,0-.73-3.94c-.14-.32-.7-.53-1.11-.67-.71-.25-1.49-.33-2.2-.61a1.35,1.35,0,0,1-.74-1.87,3.5,3.5,0,0,0,.1-.8c0-.25.06-.49.11-.74a6.84,6.84,0,0,0,.24-1.16A8.68,8.68,0,0,1,75,77.13a7.89,7.89,0,0,1,4.36.1,2.41,2.41,0,0,1,1.53,1.06c.08.16.31.26.48.37a9,9,0,0,1,3.24,3.56,1.08,1.08,0,0,0,.81.61,6.47,6.47,0,0,1,1.7.64,1.3,1.3,0,0,1,.53,1.71.81.81,0,0,1-.46.31c-.53.15-1.06.27-1.6.38a.54.54,0,0,0-.47.59,3.93,3.93,0,0,1-.09.84,1.31,1.31,0,0,0,.31,1.29c.31.37.55.8.83,1.19s.27.71-.16,1a1.34,1.34,0,0,1-.36.22c-.4.14-.48.43-.42.82A6,6,0,0,1,85,94.61a2.4,2.4,0,0,0-.09,1.09,1.36,1.36,0,0,1-.84,1.74,3.5,3.5,0,0,1-2.21.18,1,1,0,0,0-.37-.07c-.27.06-.71.08-.78.24a1.1,1.1,0,0,0,.1.9,18.62,18.62,0,0,0,2,2.68,6.61,6.61,0,0,0,2,1.14c1,.45,2.06.76,3,1.27a6.38,6.38,0,0,1,2.59,2.51,6.25,6.25,0,0,1,.67,2.57c.16,1.72.22,3.46.42,5.18.11,1,.41,1.95.61,2.93a10.83,10.83,0,0,0,2.42,4.59,3.43,3.43,0,0,1,1,2.48,2.94,2.94,0,0,0,.29,1.61,1.51,1.51,0,0,1,0,.82,19.82,19.82,0,0,1-.54,3,2.4,2.4,0,0,1-1.67,1.71,1.47,1.47,0,0,0-.56.38l-1.49,1.31a1.74,1.74,0,0,0-1.57-.59.34.34,0,0,0-.18.24A2.31,2.31,0,0,0,90,134.2a2.63,2.63,0,0,1,.12.7c.06.23.15.45.21.67a2.54,2.54,0,0,1,.1.55,4.06,4.06,0,0,0,0,.78,4.28,4.28,0,0,0,.68,1.39c.29.41.21,1.07.32,1.62a1.9,1.9,0,0,0,.23.67c.33.47.7.92,1.07,1.36a3.87,3.87,0,0,1,.92,3.19c-.15.83-.59,1.61-.81,2.43-.29,1.05-1,2-.85,3.16,0,.33.05.66.09,1a11,11,0,0,1-.29,3.52c-.19,1.2-.31,2.4-.44,3.61-.16,1.48-.29,2.95-.43,4.43a2.16,2.16,0,0,0,0,.35H79.39a13.5,13.5,0,0,0-.78-4.4.91.91,0,0,0-.28.43c-.12.47-.23.94-.32,1.41-.17.85-.33,1.71-.5,2.56Z"/></clipPath></defs><title>logo pikk</title><g id="Layer_1" data-name="Layer 1"><rect x="48.57" y="73.81" width="56.69" height="56.69" transform="translate(-49.71 84.31) rotate(-45)"/><rect class="cls-2" x="48.54" y="66.11" width="56.69" height="56.69" transform="translate(-44.27 82.03) rotate(-45)"/><g class="cls-3"><rect class="cls-4" x="48.54" y="66.11" width="56.69" height="56.69" transform="translate(-44.27 82.03) rotate(-45)"/></g><path class="cls-2" d="M139.14,73.41v2.75h11v2.75H136.39V65.16h13.75v2.75h-11v2.75h8.25v2.75Z"/><path class="cls-2" d="M163.9,78.91V65.16h2.75v5.5l7-5.5h4l-8.25,7,8.25,6.7h-4l-7-5.5v5.5Z"/><path class="cls-2" d="M205.18,67.91h-11v2.75h11v8.25H191.42V76.16h11V73.41h-11V65.16h13.76Z"/><path class="cls-2" d="M221.69,78.91h-2.75V65.16h13.75v8.25h-11Zm8.25-8.25V67.91h-8.25v2.75Z"/><path class="cls-2" d="M249.2,73.41v2.75h11v2.75H246.45V65.16h13.76v2.75h-11v2.75h8.26v2.75Z"/><path class="cls-2" d="M279.47,73.41h-2.75v5.5H274V65.16h13.76v8.25h-4.86l4.86,5.5h-3.4Zm-2.75-5.5v2.75H285V67.91Z"/><path class="cls-2" d="M301.48,65.16h13.76v2.75h-5.5v11H307v-11h-5.51Z"/><path d="M391.94,101H367.35V90.36h24.59Zm-13.63,20.76h-11v-18.9h11Zm13.63,1.86V134.1H367.35V123.57Zm-3.28-15.92v9.54h-8.49v-9.54Z"/><path d="M422.73,101H398.14V90.36h24.59ZM409.1,121.71h-11v-18.9h11Zm13.63,1.86V134.1H398.14V123.57Zm-3.28-15.92v9.54H411v-9.54Z"/><path d="M437,119.85v14.5c-6.56-1.55-11-7-11-14.5Zm5.64-30.23V99.9h-1.61c-1.74,0-3.59.75-3.59,3,0,6.56,18.52,3,18.52,18.21,0,8.36-6.2,13.75-14.93,13.75-.74,0-1.49-.06-2.17-.12V124.19h2.17c1.67,0,3.9-.5,3.9-3.1,0-6.07-18.4-3.41-18.4-18.21,0-8.12,5.95-13.32,14.5-13.32A14.44,14.44,0,0,1,442.68,89.62Zm1.86,14.43V89.93c6.44,1.42,10.84,6.81,10.84,14.12Z"/><path d="M147.41,90.36V134.1h-11V90.36Zm3.47,0c8.55,0,14.56,5.82,14.56,16.42v1.8c0,10.59-6,16.17-14.56,16.17h-1.61V114.34h.19c2.17,0,5.14-.62,5.14-5.89v-1.61c0-5.27-2.79-6-5.14-6h-.19V90.36Z"/><path d="M171.39,90.36h11v31.35h-11ZM194.5,134.1H171.39V123.57H194.5Z"/><path d="M195.36,134.1l1.43-5.51h10.84l-1.24,5.51Zm11.4-43.74,4.71,20.45-1.61,6.44H213l2.17,9.48H197.28Zm1.86,0h9.91l11.22,43.74h-11Z"/><path d="M230,134.1l1.42-5.51h10.84L241,134.1Zm11.39-43.74,4.71,20.45-1.61,6.44h3.1l2.17,9.48H231.92Zm1.86,0h9.92l11.21,43.74h-11Z"/><path d="M279.43,90.36V134.1h-11V90.36Zm3.66,0c8.61,0,14.62,5.82,14.62,16.42v11.15c0,10.53-6,16.17-14.62,16.17h-1.8V123.69h.44c2.16,0,5.08-.62,5.08-5.88v-11c0-5.27-2.73-6-5.08-6h-.44V90.36Z"/><path d="M315.24,134.1h-11V90.36h11Z"/><path d="M323.05,90.36h11l7.32,18.77,5.26-13,.06,23.73-1.73,5.45h-7.31Zm0,43.74v-39l11,26.39V134.1Zm25.46-43.74h11V134.1h-11Z"/></g></svg>