<svg id="Layer_1" data-name="Layer 1" xmlns="http://www.w3.org/2000/svg" viewBox="0 0 1000 600"><defs><style>.cls-1{fill:#1a1a1a;}.cls-2{fill:#00cfd2;}</style></defs><title>logo pikk</title><polygon class="cls-1" points="209.16 337.54 284.51 207.03 133.81 207.03 209.16 337.54"/><polygon class="cls-2" points="130.66 207.46 108.24 246.29 153.08 246.29 130.66 207.46"/><polygon class="cls-1" points="287.69 207.46 265.27 246.29 310.11 246.29 287.69 207.46"/><polygon class="cls-2" points="182.01 298.71 159.59 337.54 204.43 337.54 182.01 298.71"/><polygon class="cls-1" points="235.91 298.71 213.49 337.54 258.33 337.54 235.91 298.71"/><polygon class="cls-2" points="209.16 337.54 284.51 207.03 209.27 207.03 209.16 337.54"/><circle class="cls-1" cx="209.17" cy="162.86" r="36.02"/><path class="cls-2" d="M348.94,220.08a22.51,22.51,0,0,1,3.08-7.55,25.73,25.73,0,0,1,5.46-6.16,26.83,26.83,0,0,1,7.08-4.17,21.13,21.13,0,0,1,7.88-1.54h12a17.33,17.33,0,0,1,6.42,1.16,14.42,14.42,0,0,1,5,3.26A15.1,15.1,0,0,1,399,210a16.46,16.46,0,0,1,1.05,8.08c-.09.64-.18,1.32-.3,2.05l-4.66,22.08a13.78,13.78,0,0,1-1.92,4.71,16.32,16.32,0,0,1-7.79,6.38,13.45,13.45,0,0,1-4.88.91h-7.41A27.39,27.39,0,0,1,363,252.37a24.18,24.18,0,0,1-7.92-5l-5.16,24.34a.8.8,0,0,0,.91.91h25.67a1.85,1.85,0,0,1,1.92,1.92c0,.11,0,.18,0,.21s0,.1,0,.21l-1.25,5.58a2.88,2.88,0,0,1-1,1.63,2.68,2.68,0,0,1-1.75.7h-27a9.15,9.15,0,0,1-6.87-2.7,9.39,9.39,0,0,1-2.63-6.8,13.33,13.33,0,0,1,.25-2.5Zm38.58,1.25a9.16,9.16,0,0,0,.25-2.09,8,8,0,0,0-2.29-5.83,8.07,8.07,0,0,0-6-2.33h-9.17a8.2,8.2,0,0,0-3,.58,10,10,0,0,0-2.71,1.58,10.15,10.15,0,0,0-2.08,2.38,8.89,8.89,0,0,0-1.21,2.87L358,233.83a10.17,10.17,0,0,0-.25,2.16,7.85,7.85,0,0,0,2.29,5.8,8.22,8.22,0,0,0,6.05,2.29h14.16a2.8,2.8,0,0,0,1.84-.71,3.26,3.26,0,0,0,1.08-1.71Z"/><path class="cls-2" d="M433.61,152.16a2.58,2.58,0,0,1,1-1.67,2.89,2.89,0,0,1,1.79-.67h7.34a2,2,0,0,1,1.37.5,1.73,1.73,0,0,1,.54,1.33c-.05.28-.15.75-.29,1.42l-.66,3.13c-.31,1.41-.74,3.43-1.3,6s-1.26,5.92-2.12,9.92-1.91,8.91-3.13,14.75-2.66,12.69-4.33,20.58-3.61,17-5.83,27.34l32.33-32.51a5.7,5.7,0,0,1,2.84-1.66h9c1.11,0,1.66.61,1.66,1.83a4.46,4.46,0,0,1-.21,1.34A2.83,2.83,0,0,1,473,205l-36.51,36.67L457,278.41a1.85,1.85,0,0,1,.33,1.17,3.53,3.53,0,0,1-1,2.17,2.72,2.72,0,0,1-2.12,1.16h-8.67a1.87,1.87,0,0,1-1.37-.45,4.16,4.16,0,0,1-.8-1.13L425.11,248.5l-6.84,32.08a2.65,2.65,0,0,1-1,1.67,2.8,2.8,0,0,1-1.76.66h-7.33a1.86,1.86,0,0,1-1.92-1.91v-.42Z"/><path class="cls-2" d="M500.86,235.91a17.06,17.06,0,0,1,6.42,1.17,14.21,14.21,0,0,1,5,3.25,15.4,15.4,0,0,1,3.21,4.87,15.75,15.75,0,0,1,1.17,6.13c0,.33,0,.71,0,1.12a13.91,13.91,0,0,1-.29,1.88c-.16.83-.39,2-.66,3.42s-.67,3.36-1.17,5.75a22.16,22.16,0,0,1-3.13,7.54,26.9,26.9,0,0,1-5.46,6.17,25.7,25.7,0,0,1-7,4.16,21.08,21.08,0,0,1-7.87,1.54H464.69a1.58,1.58,0,0,1-1.54-.7,3.46,3.46,0,0,1-.37-1.63L464,275a3,3,0,0,1,2.83-2.34h26.5a8.65,8.65,0,0,0,5.71-2.12,9.13,9.13,0,0,0,3.21-5.21L505,252.08a5.66,5.66,0,0,0-1.67-4.17,5.85,5.85,0,0,0-4.33-1.66H490a16.82,16.82,0,0,1-6.38-1.17,14.38,14.38,0,0,1-8.12-8.09,15.72,15.72,0,0,1-1.17-6.08c0-.33,0-.71,0-1.12s.1-1,.21-1.75.29-1.76.54-3,.6-2.9,1.05-4.95a22,22,0,0,1,3.12-7.55,27.09,27.09,0,0,1,5.46-6.16,26.14,26.14,0,0,1,7-4.17,21.13,21.13,0,0,1,7.88-1.54h19.5a1.91,1.91,0,0,1,1.42.5,1.7,1.7,0,0,1,.5,1.25v.25a5.73,5.73,0,0,1-.13.75c-.08.39-.21,1-.37,1.79s-.42,1.93-.75,3.38a3,3,0,0,1-2.84,2.33H497.28a8.2,8.2,0,0,0-3,.58,9.88,9.88,0,0,0-4.79,4,9,9,0,0,0-1.21,2.88l-2.17,10.16q-.08.42-.12.75a6.37,6.37,0,0,0,1.58,5,5.75,5.75,0,0,0,4.38,1.71Z"/><path class="cls-2" d="M583.12,270.91a13.4,13.4,0,0,1-1.92,4.71,16.58,16.58,0,0,1-3.37,3.84,15.51,15.51,0,0,1-4.34,2.54,13.43,13.43,0,0,1-4.87.91H561.2a27.3,27.3,0,0,1-10.08-1.79,23.81,23.81,0,0,1-7.92-5L535.53,312a2.6,2.6,0,0,1-1,1.67,2.94,2.94,0,0,1-1.79.66h-7.34a1.91,1.91,0,0,1-1.37-.5,1.73,1.73,0,0,1-.54-1.33.54.54,0,0,1,0-.25.57.57,0,0,0,0-.25l19.59-91.92a22.51,22.51,0,0,1,3.08-7.55,25.73,25.73,0,0,1,5.46-6.16,26.83,26.83,0,0,1,7.08-4.17,21.09,21.09,0,0,1,7.88-1.54h12a17.33,17.33,0,0,1,6.42,1.16,14.29,14.29,0,0,1,5,3.26A15.13,15.13,0,0,1,593.2,210a15.68,15.68,0,0,1,1.17,6.13,13.89,13.89,0,0,1-.13,1.95c-.08.64-.18,1.32-.29,2.05Zm-.84-52.58c.06-.28.1-.55.13-.8a6.63,6.63,0,0,0,0-.79,5.62,5.62,0,0,0-1.67-4.16,5.82,5.82,0,0,0-4.33-1.67h-12a8.2,8.2,0,0,0-3,.58,9.88,9.88,0,0,0-4.79,4,8.81,8.81,0,0,0-1.21,2.88l-9.33,44.08a10.19,10.19,0,0,0-.25,2.17,7.85,7.85,0,0,0,2.29,5.79,8.16,8.16,0,0,0,6,2.29h14.17a2.78,2.78,0,0,0,1.83-.7,3.22,3.22,0,0,0,1.08-1.71Z"/><path class="cls-2" d="M614.45,220.08a22.74,22.74,0,0,1,3.09-7.55,25.73,25.73,0,0,1,5.46-6.16,26.67,26.67,0,0,1,7.08-4.17,21.08,21.08,0,0,1,7.87-1.54h12a17.26,17.26,0,0,1,6.42,1.16,14.23,14.23,0,0,1,5,3.26,15.29,15.29,0,0,1,3.21,4.87,16.14,16.14,0,0,1,1,8.08c-.08.64-.18,1.32-.29,2.05l-4.67,22.08a13.56,13.56,0,0,1-1.91,4.71,16.28,16.28,0,0,1-3.42,3.83,15.79,15.79,0,0,1-4.38,2.55,13.43,13.43,0,0,1-4.87.91h-7.42a27.3,27.3,0,0,1-10.08-1.79,24,24,0,0,1-7.92-5l-5.17,24.34a.81.81,0,0,0,.92.91H642a1.86,1.86,0,0,1,1.37.54,1.89,1.89,0,0,1,.55,1.38.32.32,0,0,1-.05.21s0,.1,0,.21l-1.25,5.58a2.78,2.78,0,0,1-1,1.63,2.66,2.66,0,0,1-1.75.7h-27a9.17,9.17,0,0,1-6.88-2.7,9.38,9.38,0,0,1-2.62-6.8,12.54,12.54,0,0,1,.25-2.5ZM653,221.33a9.16,9.16,0,0,0,.25-2.09,7.91,7.91,0,0,0-8.33-8.16h-9.17a8.2,8.2,0,0,0-3,.58,9.74,9.74,0,0,0-4.79,4,8.67,8.67,0,0,0-1.21,2.87l-3.25,15.34a10.17,10.17,0,0,0-.25,2.16,7.85,7.85,0,0,0,2.29,5.8,8.2,8.2,0,0,0,6,2.29h14.17a2.78,2.78,0,0,0,1.83-.71,3.22,3.22,0,0,0,1.09-1.71Z"/><path class="cls-2" d="M686.54,203a3.09,3.09,0,0,1,1.08-1.67,2.8,2.8,0,0,1,1.76-.66H695a1.91,1.91,0,0,1,1.37.5,1.73,1.73,0,0,1,.55,1.33,1.09,1.09,0,0,1-.09.5l-1.16,5.59a40.84,40.84,0,0,1,10.87-6,34.43,34.43,0,0,1,12-2.17,17.1,17.1,0,0,1,6.42,1.17,14.48,14.48,0,0,1,5,3.2,15,15,0,0,1,3.21,4.84,15.63,15.63,0,0,1,1.17,6,17.4,17.4,0,0,1-.13,2c-.08.69-.18,1.37-.29,2l-2.17,10.08a2.58,2.58,0,0,1-1,1.67,2.89,2.89,0,0,1-1.79.67h-7.34a2,2,0,0,1-1.37-.5,1.75,1.75,0,0,1-.54-1.34.57.57,0,0,1,0-.25.51.51,0,0,0,0-.25l2.17-10c0-.28.09-.51.12-.71a4.64,4.64,0,0,0,0-.7,6.72,6.72,0,0,0-.66-3,7.36,7.36,0,0,0-1.84-2.38,8.39,8.39,0,0,0-2.71-1.54,9.83,9.83,0,0,0-3.29-.54H703.21a7.47,7.47,0,0,0-4.88,1.83,8,8,0,0,0-2.79,4.5L682,280.58a2.62,2.62,0,0,1-1,1.67,2.79,2.79,0,0,1-1.75.66H672a1.83,1.83,0,0,1-1.38-.54A1.86,1.86,0,0,1,670,281v-.42Z"/><path class="cls-2" d="M754.55,200.74l4.16-19.67a6,6,0,0,1,1.59-2.83l8.33-8.33a7.25,7.25,0,0,1,.67-.46,1.37,1.37,0,0,1,.75-.21h.33a2.25,2.25,0,0,1,1.67.67,2.16,2.16,0,0,1,.66,1.58,1,1,0,0,1,0,.25c0,.11-.1.45-.21,1s-.29,1.43-.54,2.62-.61,2.88-1.08,5-1.06,4.9-1.75,8.21-1.54,7.34-2.54,12.12h18.83c.78,0,1.28.24,1.5.71a3.78,3.78,0,0,1,.34,1.62l-1.17,5.51a3,3,0,0,1-2.84,2.33H764.38l-14.83,69.67a2.71,2.71,0,0,1-1,1.67,2.79,2.79,0,0,1-1.75.66h-7.34a1.86,1.86,0,0,1-1.92-1.91v-.42l14.84-69.67h-8a1.78,1.78,0,0,1-1.92-1.83.54.54,0,0,1,0-.25.57.57,0,0,0,0-.25l1.17-5.51a3,3,0,0,1,2.83-2.33Z"/><path class="cls-1" d="M293,429.74a13.78,13.78,0,0,1-1.92,4.71,16.57,16.57,0,0,1-3.38,3.83,15.12,15.12,0,0,1-4.33,2.55,13.43,13.43,0,0,1-4.87.91h-7.42A27.39,27.39,0,0,1,261,440a24,24,0,0,1-7.91-5l-7.67,35.84a2.6,2.6,0,0,1-1,1.67,2.94,2.94,0,0,1-1.79.66h-7.34a1.91,1.91,0,0,1-1.37-.5,1.73,1.73,0,0,1-.54-1.33.54.54,0,0,1,0-.25.57.57,0,0,0,0-.25L253,378.91a22.65,22.65,0,0,1,3.09-7.55,25.73,25.73,0,0,1,5.46-6.16A26.67,26.67,0,0,1,268.6,361a21.09,21.09,0,0,1,7.88-1.54h12a17.24,17.24,0,0,1,6.41,1.16,14.35,14.35,0,0,1,5,3.25,15.45,15.45,0,0,1,3.21,4.88,15.68,15.68,0,0,1,1.17,6.13,13.89,13.89,0,0,1-.13,1.95c-.08.64-.18,1.32-.29,2.05Zm-.84-52.58c.06-.28.1-.55.13-.8a6.63,6.63,0,0,0,0-.79,5.69,5.69,0,0,0-1.67-4.17,5.85,5.85,0,0,0-4.33-1.66h-12a8.2,8.2,0,0,0-3,.58,9.74,9.74,0,0,0-4.79,4,8.81,8.81,0,0,0-1.21,2.88L256,421.24a10.87,10.87,0,0,0-.25,2.17,7.85,7.85,0,0,0,2.3,5.79,8.14,8.14,0,0,0,6,2.29h14.17a2.74,2.74,0,0,0,1.83-.71,3.22,3.22,0,0,0,1.08-1.7Z"/><path class="cls-1" d="M340.48,311a2.58,2.58,0,0,1,1-1.66,2.89,2.89,0,0,1,1.79-.67h7.34a2,2,0,0,1,1.37.5,1.73,1.73,0,0,1,.54,1.33c-.05.39-.19,1.06-.41,2s-.54,2.45-1,4.5-1,5-1.83,8.71-1.83,8.52-3.05,14.3-2.73,12.89-4.54,21.33-3.92,18.36-6.33,29.75-5.21,24.56-8.38,39.51a.81.81,0,0,0,.92.91h16a1.85,1.85,0,0,1,1.42.54,1.89,1.89,0,0,1,.5,1.3.55.55,0,0,1,0,.25.67.67,0,0,0,0,.25l-1.25,5.58a2.81,2.81,0,0,1-1,1.62,2.56,2.56,0,0,1-1.79.71H324.56a9.26,9.26,0,0,1-7-2.7,9.38,9.38,0,0,1-2.62-6.8,12.54,12.54,0,0,1,.25-2.5Z"/><path class="cls-1" d="M393.57,435.08a41.69,41.69,0,0,1-10,4.91,33.67,33.67,0,0,1-10.75,1.75h-7.5a9.51,9.51,0,0,1-7.08-2.7,9.3,9.3,0,0,1-2.67-6.8,13.33,13.33,0,0,1,.25-2.5l10.84-51a22,22,0,0,1,3.12-7.63,26.67,26.67,0,0,1,12.59-10.33,21.27,21.27,0,0,1,8-1.54,25.37,25.37,0,0,1,8.41,1.25,29,29,0,0,1,6,2.75,18.54,18.54,0,0,1,3.59,2.79l1.37,1.46,1.08-5.17a2.61,2.61,0,0,1,1-1.67,2.94,2.94,0,0,1,1.79-.66h5.58a1.94,1.94,0,0,1,1.38.5,1.73,1.73,0,0,1,.54,1.33,2.24,2.24,0,0,1-.09.42c-.05.22-.22,1-.5,2.29s-.7,3.36-1.29,6.17-1.43,6.78-2.54,11.91-2.5,11.67-4.17,19.59-3.72,17.65-6.16,29.21h7.91a1.78,1.78,0,0,1,1.92,1.83.59.59,0,0,1,0,.21c0,.08-.08.32-.17.71s-.21,1-.37,1.79-.39,1.93-.67,3.38a3.33,3.33,0,0,1-1,1.62,2.64,2.64,0,0,1-1.79.71H394.48a2,2,0,0,1-1.37-.5,1.73,1.73,0,0,1-.54-1.33,1.11,1.11,0,0,1,.08-.5Zm12.5-59a7.11,7.11,0,0,0,.16-1.33,4.88,4.88,0,0,0-1.41-3.59,5.1,5.1,0,0,0-3.75-1.41H390.9a11.12,11.12,0,0,0-4.21.83,15.05,15.05,0,0,0-3.75,2.21,13.37,13.37,0,0,0-2.92,3.29,12,12,0,0,0-1.62,4l-10.42,49a1.52,1.52,0,0,0-.08.58,1.86,1.86,0,0,0,.54,1.37,2,2,0,0,0,1.46.55h14.17a10.76,10.76,0,0,0,4.12-.84,14.75,14.75,0,0,0,3.75-2.21,12.79,12.79,0,0,0,2.88-3.25,13.26,13.26,0,0,0,1.66-4Z"/><path class="cls-1" d="M462.07,435.08a41.63,41.63,0,0,1-10,4.91,33.67,33.67,0,0,1-10.75,1.75h-7.5a9.52,9.52,0,0,1-7.09-2.7,9.33,9.33,0,0,1-2.66-6.8,12.54,12.54,0,0,1,.25-2.5l10.83-51a22.2,22.2,0,0,1,3.13-7.63,26.33,26.33,0,0,1,5.5-6.16,26.83,26.83,0,0,1,7.08-4.17,21.31,21.31,0,0,1,8-1.54,25.43,25.43,0,0,1,8.42,1.25,29.27,29.27,0,0,1,6,2.75,18.74,18.74,0,0,1,3.58,2.79c.8.86,1.26,1.35,1.38,1.46l1.08-5.17a2.6,2.6,0,0,1,1-1.67,2.94,2.94,0,0,1,1.79-.66h5.59a1.91,1.91,0,0,1,1.37.5,1.73,1.73,0,0,1,.54,1.33,2.91,2.91,0,0,1-.08.42c-.06.22-.22,1-.5,2.29s-.71,3.36-1.29,6.17-1.43,6.78-2.54,11.91-2.5,11.67-4.17,19.59-3.72,17.65-6.17,29.21h7.92a1.8,1.8,0,0,1,1.92,1.83.63.63,0,0,1-.05.21c0,.08-.08.32-.16.71s-.21,1-.38,1.79-.39,1.93-.66,3.38a3.35,3.35,0,0,1-1.05,1.62,2.62,2.62,0,0,1-1.79.71H463a2,2,0,0,1-1.38-.5,1.73,1.73,0,0,1-.54-1.33,1.26,1.26,0,0,1,.08-.5Zm12.5-59a7.27,7.27,0,0,0,.17-1.33,4.85,4.85,0,0,0-1.42-3.59,5.07,5.07,0,0,0-3.75-1.41H459.4a11.11,11.11,0,0,0-4.2.83,14.7,14.7,0,0,0-3.75,2.21,13.17,13.17,0,0,0-2.92,3.29,11.78,11.78,0,0,0-1.63,4l-10.41,49a1.31,1.31,0,0,0-.09.58,1.86,1.86,0,0,0,.54,1.37,2,2,0,0,0,1.46.55h14.17a10.81,10.81,0,0,0,4.13-.84,14.75,14.75,0,0,0,3.75-2.21,13,13,0,0,0,2.87-3.25,13.28,13.28,0,0,0,1.67-4Z"/><path class="cls-1" d="M508.07,371.49a13.24,13.24,0,0,1,1.92-4.67,17,17,0,0,1,3.37-3.79,16.14,16.14,0,0,1,4.34-2.58,12.9,12.9,0,0,1,4.88-1H530a27.3,27.3,0,0,1,10.08,1.79,24,24,0,0,1,7.92,5L559.74,311a3,3,0,0,1,1.09-1.66,2.71,2.71,0,0,1,1.75-.67h7.33a2,2,0,0,1,1.38.5,1.73,1.73,0,0,1,.54,1.33c-.06.34-.18.95-.38,1.84s-.48,2.29-.87,4.21-1,4.62-1.71,8.12-1.7,8-2.83,13.34-2.55,12-4.21,19.83-3.64,17.06-5.92,27.67-4.89,22.89-7.84,36.83a21.91,21.91,0,0,1-3.12,7.55,27.09,27.09,0,0,1-5.46,6.16,26.14,26.14,0,0,1-7,4.17,21.09,21.09,0,0,1-7.88,1.54h-12a17,17,0,0,1-6.41-1.16,14.55,14.55,0,0,1-5-3.21,14.8,14.8,0,0,1-3.21-4.88,16,16,0,0,1-1.17-6.17,14,14,0,0,1,.13-1.95c.08-.64.18-1.32.29-2.05Zm.84,52.58c-.06.28-.1.55-.13.8a6.63,6.63,0,0,0,0,.79,5.64,5.64,0,0,0,1.67,4.17,5.85,5.85,0,0,0,4.33,1.66h12a8.2,8.2,0,0,0,3-.58,10,10,0,0,0,2.71-1.58,10.15,10.15,0,0,0,2.08-2.38,8.72,8.72,0,0,0,1.21-2.88L545.08,380a9.63,9.63,0,0,0,.24-2.08,8,8,0,0,0-2.29-5.84,8.11,8.11,0,0,0-6-2.33H522.82a2.94,2.94,0,0,0-1.87.71,2.69,2.69,0,0,0-1,1.71Z"/><path class="cls-1" d="M581.24,370.57h-4.58A2.23,2.23,0,0,1,575,370a2.13,2.13,0,0,1-.62-1.55,1.55,1.55,0,0,1,.08-.58l1.17-5.5a3.43,3.43,0,0,1,1.21-2,3.61,3.61,0,0,1,2.12-.87h14.34a1.91,1.91,0,0,1,1.37.5,1.73,1.73,0,0,1,.54,1.33,1.11,1.11,0,0,1-.08.5l-16.5,77.59a2.67,2.67,0,0,1-1,1.67,2.79,2.79,0,0,1-1.75.66h-7.33a1.85,1.85,0,0,1-1.92-1.91v-.42Zm8.17-37.84a5.78,5.78,0,0,1,2-3.24,5.31,5.31,0,0,1,3.5-1.34h2.84a3.66,3.66,0,0,1,2.7,1,3.56,3.56,0,0,1,1,2.63,3.6,3.6,0,0,1-.09.91L599.16,343a5.78,5.78,0,0,1-2,3.25,5.28,5.28,0,0,1-3.5,1.33h-2.83a3.68,3.68,0,0,1-2.71-1,3.55,3.55,0,0,1-1-2.63,4.23,4.23,0,0,1,.08-.91Z"/><path class="cls-1" d="M644.75,359.9a17.35,17.35,0,0,1,9.08,2.3,12.94,12.94,0,0,1,5.5,6.37A39.51,39.51,0,0,1,669.75,362a34.12,34.12,0,0,1,14.08-2.75,12.25,12.25,0,0,1,5.3,1.12,12.4,12.4,0,0,1,4.08,3.09,13.6,13.6,0,0,1,2.62,4.62,17.62,17.62,0,0,1,.92,5.84,24.35,24.35,0,0,1-.5,4.74l-12.92,60.76a2.62,2.62,0,0,1-1,1.67,2.77,2.77,0,0,1-1.75.66h-7.33a1.85,1.85,0,0,1-1.92-1.91v-.42l12.34-57.67a12.92,12.92,0,0,0,.25-2.42,9.28,9.28,0,0,0-9.75-9.58h-5.92a7.7,7.7,0,0,0-4.83,1.75,7.08,7.08,0,0,0-2.75,4.33c-.23,1.06-.84,4-1.84,8.75-.44,2.06-1,4.63-1.62,7.71s-1.44,6.83-2.38,11.25-2,9.59-3.29,15.5-2.68,12.71-4.29,20.38a2.67,2.67,0,0,1-1,1.67,2.79,2.79,0,0,1-1.75.66h-7.34a1.85,1.85,0,0,1-1.91-1.91v-.42l13.25-62.25c0-.28.09-.55.12-.8a6.63,6.63,0,0,0,0-.79A5.68,5.68,0,0,0,647,371.4a5.87,5.87,0,0,0-4.34-1.66h-9.33a8.2,8.2,0,0,0-3,.58,10,10,0,0,0-2.71,1.58,9.92,9.92,0,0,0-2.08,2.38,8.81,8.81,0,0,0-1.21,2.88l-13.25,62.25a2.67,2.67,0,0,1-1,1.67,2.79,2.79,0,0,1-1.75.66H601a1.85,1.85,0,0,1-1.91-1.91v-.42L612,378.91a22.06,22.06,0,0,1,3.08-7.51,25,25,0,0,1,5.42-6,25.48,25.48,0,0,1,7-4,22.23,22.23,0,0,1,7.87-1.46Z"/><path class="cls-1" d="M713.92,378.91a22.42,22.42,0,0,1,3.08-7.55,25.73,25.73,0,0,1,5.46-6.16,26.83,26.83,0,0,1,7.08-4.17,21.13,21.13,0,0,1,7.88-1.54h12a17.33,17.33,0,0,1,6.42,1.16,14.45,14.45,0,0,1,5,3.25,15.45,15.45,0,0,1,3.21,4.88,15.86,15.86,0,0,1,1.16,6.13,15.59,15.59,0,0,1-.12,1.95c-.09.64-.18,1.32-.29,2.05L760.09,401a13.59,13.59,0,0,1-1.92,4.71,16.22,16.22,0,0,1-7.79,6.37,13.25,13.25,0,0,1-4.88.92h-7.41A27.6,27.6,0,0,1,728,411.2a24,24,0,0,1-7.91-5l-5.17,24.34a.8.8,0,0,0,.92.91H741.5a1.85,1.85,0,0,1,1.92,1.92c0,.11,0,.18,0,.21s0,.09,0,.21l-1.25,5.58a2.78,2.78,0,0,1-1,1.62,2.64,2.64,0,0,1-1.75.71h-27a9.15,9.15,0,0,1-6.87-2.7,9.39,9.39,0,0,1-2.63-6.8,13.33,13.33,0,0,1,.25-2.5Zm38.58,1.25a9.16,9.16,0,0,0,.25-2.09,8,8,0,0,0-2.29-5.83,8.08,8.08,0,0,0-6-2.34h-9.17a8.21,8.21,0,0,0-3,.59,9.78,9.78,0,0,0-2.71,1.58,10.15,10.15,0,0,0-2.08,2.38,8.89,8.89,0,0,0-1.21,2.87L723,392.66a10.78,10.78,0,0,0-.25,2.16,7.85,7.85,0,0,0,2.29,5.8,8.22,8.22,0,0,0,6.05,2.29h14.16a2.8,2.8,0,0,0,1.84-.71,3.26,3.26,0,0,0,1.08-1.71Z"/><path class="cls-1" d="M782.42,378.91a22.65,22.65,0,0,1,3.09-7.55A25.47,25.47,0,0,1,791,365.2a26.73,26.73,0,0,1,7.09-4.17,21.08,21.08,0,0,1,7.87-1.54h12a17.26,17.26,0,0,1,6.42,1.16,14.35,14.35,0,0,1,5,3.25,15.45,15.45,0,0,1,3.21,4.88,16.14,16.14,0,0,1,1,8.08c-.08.64-.18,1.32-.29,2.05L828.59,401a13.4,13.4,0,0,1-1.92,4.71,16,16,0,0,1-3.41,3.83,15.76,15.76,0,0,1-4.38,2.54A13.24,13.24,0,0,1,814,413h-7.42a27.51,27.51,0,0,1-10.08-1.79,24,24,0,0,1-7.92-5l-5.17,24.34a.81.81,0,0,0,.92.91H810a1.86,1.86,0,0,1,1.37.54,1.88,1.88,0,0,1,.54,1.38c0,.11,0,.18,0,.21s0,.09,0,.21l-1.25,5.58a2.78,2.78,0,0,1-1,1.62,2.64,2.64,0,0,1-1.75.71h-27A9.16,9.16,0,0,1,774,439a9.38,9.38,0,0,1-2.62-6.8,12.54,12.54,0,0,1,.25-2.5ZM821,380.16a9.75,9.75,0,0,0,.25-2.09,8,8,0,0,0-2.29-5.83,8.1,8.1,0,0,0-6.05-2.34h-9.16a8.21,8.21,0,0,0-3,.59,9.64,9.64,0,0,0-2.71,1.58,10.19,10.19,0,0,0-2.09,2.38,8.86,8.86,0,0,0-1.2,2.87l-3.25,15.34a10.1,10.1,0,0,0-.25,2.16,7.85,7.85,0,0,0,2.29,5.8,8.2,8.2,0,0,0,6,2.29h14.17a2.78,2.78,0,0,0,1.83-.71,3.15,3.15,0,0,0,1.08-1.71Z"/><path class="cls-1" d="M871.51,394.74a17.13,17.13,0,0,1,6.42,1.17,14.3,14.3,0,0,1,5,3.25A15.4,15.4,0,0,1,886.1,404a15.9,15.9,0,0,1,1.16,6.13c0,.33,0,.71,0,1.12a15.76,15.76,0,0,1-.29,1.88c-.17.83-.39,2-.67,3.41s-.66,3.37-1.16,5.75a22.13,22.13,0,0,1-3.13,7.55,27.09,27.09,0,0,1-5.46,6.16,26.14,26.14,0,0,1-7,4.17,21.09,21.09,0,0,1-7.88,1.54H835.34a1.56,1.56,0,0,1-1.54-.71,3.4,3.4,0,0,1-.37-1.62l1.25-5.58a2.72,2.72,0,0,1,1-1.63,2.76,2.76,0,0,1,1.83-.71H864a8.72,8.72,0,0,0,5.71-2.12,9.26,9.26,0,0,0,3.21-5.21l2.66-13.25a5.65,5.65,0,0,0-1.66-4.17,5.88,5.88,0,0,0-4.34-1.67h-8.91a16.78,16.78,0,0,1-6.38-1.16,14.77,14.77,0,0,1-4.92-3.21,14.62,14.62,0,0,1-3.2-4.88,15.72,15.72,0,0,1-1.17-6.08c0-.33,0-.71,0-1.13s.1-1,.21-1.75.29-1.75.54-3,.6-2.9,1-4.95a22.13,22.13,0,0,1,3.13-7.55,26.85,26.85,0,0,1,5.46-6.16,26.14,26.14,0,0,1,7-4.17,21.08,21.08,0,0,1,7.87-1.54h19.51a1.87,1.87,0,0,1,1.41.5,1.67,1.67,0,0,1,.5,1.25v.25a5.09,5.09,0,0,1-.12.75c-.09.39-.21,1-.38,1.79s-.41,1.93-.75,3.37a2.72,2.72,0,0,1-1,1.63,2.76,2.76,0,0,1-1.83.71H867.93a8.2,8.2,0,0,0-3,.58,9.74,9.74,0,0,0-4.79,4,8.81,8.81,0,0,0-1.21,2.88l-2.17,10.16a6.38,6.38,0,0,0-.12.75,5.66,5.66,0,0,0,0,.75,5.89,5.89,0,0,0,1.63,4.21,5.74,5.74,0,0,0,4.37,1.71Z"/></svg>