<?xml version="1.0" encoding="utf-8"?>
<!-- Generator: Adobe Illustrator 22.0.1, SVG Export Plug-In . SVG Version: 6.00 Build 0)  -->
<svg version="1.1" xmlns="http://www.w3.org/2000/svg" xmlns:xlink="http://www.w3.org/1999/xlink" x="0px" y="0px"
	 viewBox="0 0 1000 600" style="enable-background:new 0 0 1000 600;" xml:space="preserve">
<style type="text/css">
	.st0{display:none;}
	.st1{display:inline;fill:#FFFFFF;}
	.st2{display:inline;fill:#1A1A1A;}
	.st3{fill:#E5E5E5;}
	.st4{fill:#1A1A1A;}
	.st5{fill:#00CFD2;}
</style>
<g id="Layer_2" class="st0">
	<rect class="st1" width="1000" height="600"/>
</g>
<g id="Layer_1">
	<g>
		<g>
			<circle class="st3" cx="219.1" cy="246.9" r="139.1"/>
			<g>
				<polygon class="st4" points="219.1,349.8 292.7,222.3 145.5,222.3 				"/>
				<polygon class="st5" points="142.4,222.7 120.5,260.7 164.3,260.7 				"/>
				<polygon class="st4" points="295.9,222.7 273.9,260.7 317.8,260.7 				"/>
				<polygon class="st5" points="192.6,311.9 170.7,349.8 214.5,349.8 				"/>
				<polygon class="st4" points="245.3,311.9 223.4,349.8 267.2,349.8 				"/>
				<polygon class="st5" points="219.1,349.8 292.7,222.3 219.2,222.3 				"/>
				<circle class="st4" cx="219.1" cy="179.2" r="35.2"/>
			</g>
		</g>
		<g>
			<g>
				<path class="st4" d="M389.6,245c0.5-2.6,1.5-5.1,3-7.4c1.5-2.3,3.2-4.3,5.3-6c2.1-1.7,4.4-3.1,6.9-4.1c2.5-1,5.1-1.5,7.7-1.5
					h11.7c2.3,0,4.4,0.4,6.3,1.1c1.9,0.8,3.5,1.8,4.8,3.2c1.3,1.4,2.4,2.9,3.1,4.8c0.8,1.8,1.1,3.8,1.1,6c0,0.7,0,1.3-0.1,1.9
					c-0.1,0.6-0.2,1.3-0.3,2l-4.6,21.6c-0.3,1.6-1,3.2-1.9,4.6c-0.9,1.4-2,2.7-3.3,3.7s-2.7,1.9-4.3,2.5c-1.5,0.6-3.1,0.9-4.8,0.9
					h-7.2c-3.6,0-6.9-0.6-9.9-1.8c-3-1.2-5.6-2.8-7.7-4.8l-5,23.8c0,0.6,0.3,0.9,0.9,0.9h25.1c0.5,0,1,0.2,1.3,0.5
					c0.4,0.4,0.5,0.8,0.5,1.3c0,0.1,0,0.2,0,0.2c0,0,0,0.1,0,0.2l-1.2,5.5c-0.1,0.6-0.4,1.1-1,1.6c-0.5,0.5-1.1,0.7-1.7,0.7h-26.4
					c-2.8,0-5-0.9-6.7-2.6c-1.7-1.8-2.6-4-2.6-6.6c0-0.8,0.1-1.6,0.2-2.4L389.6,245z M427.3,246.2c0.2-0.7,0.2-1.4,0.2-2
					c0-2.3-0.7-4.2-2.2-5.7c-1.5-1.5-3.5-2.3-5.9-2.3h-9c-1,0-2,0.2-2.9,0.6c-1,0.4-1.9,0.9-2.6,1.5c-0.8,0.7-1.5,1.4-2,2.3
					c-0.6,0.9-1,1.8-1.2,2.8l-3.2,15c-0.2,0.8-0.2,1.5-0.2,2.1c0,2.3,0.7,4.2,2.2,5.7c1.5,1.5,3.5,2.2,5.9,2.2h13.8
					c0.7,0,1.2-0.2,1.8-0.7c0.5-0.5,0.9-1,1.1-1.7L427.3,246.2z"/>
				<path class="st4" d="M472.4,178.6c0.1-0.7,0.4-1.2,1-1.6s1.2-0.7,1.8-0.7h7.2c0.5,0,1,0.2,1.3,0.5c0.4,0.3,0.5,0.8,0.5,1.3
					c-0.1,0.3-0.1,0.7-0.3,1.4c-0.1,0.7-0.4,1.7-0.7,3.1c-0.3,1.4-0.7,3.4-1.3,5.9c-0.5,2.6-1.2,5.8-2.1,9.7
					c-0.8,3.9-1.9,8.7-3.1,14.4c-1.2,5.7-2.6,12.4-4.2,20.1c-1.6,7.7-3.5,16.6-5.7,26.7l31.6-31.8c0.8-0.8,1.7-1.4,2.8-1.6h8.8
					c1.1,0,1.6,0.6,1.6,1.8c0,0.4-0.1,0.9-0.2,1.3c-0.1,0.4-0.4,0.8-0.7,1.1l-35.7,35.8l20.1,35.9c0.2,0.3,0.3,0.7,0.3,1.1
					c0,0.7-0.3,1.4-0.9,2.1c-0.6,0.8-1.3,1.1-2.1,1.1h-8.5c-0.6,0-1-0.1-1.3-0.4c-0.3-0.3-0.6-0.7-0.8-1.1l-17.9-32.1l-6.7,31.3
					c-0.1,0.7-0.4,1.2-1,1.6c-0.5,0.4-1.1,0.7-1.7,0.7h-7.2c-0.5,0-1-0.2-1.3-0.5c-0.4-0.4-0.5-0.8-0.5-1.3v-0.4L472.4,178.6z"/>
				<path class="st4" d="M538.1,260.4c2.3,0,4.4,0.4,6.3,1.1c1.9,0.8,3.5,1.8,4.8,3.2c1.3,1.4,2.4,2.9,3.1,4.8
					c0.8,1.8,1.1,3.8,1.1,6c0,0.3,0,0.7,0,1.1c0,0.4-0.1,1-0.3,1.8c-0.2,0.8-0.4,1.9-0.7,3.3c-0.3,1.4-0.7,3.3-1.1,5.6
					c-0.5,2.6-1.6,5.1-3.1,7.4c-1.5,2.3-3.3,4.3-5.3,6c-2.1,1.7-4.4,3.1-6.9,4.1c-2.5,1-5.1,1.5-7.7,1.5h-25.6
					c-0.8,0-1.3-0.2-1.5-0.7c-0.2-0.5-0.4-1-0.4-1.6l1.2-5.5c0.1-0.6,0.4-1.1,1-1.6c0.5-0.5,1.1-0.7,1.8-0.7h25.9
					c2.1,0,3.9-0.7,5.6-2.1c1.7-1.4,2.7-3.1,3.1-5.1l2.6-12.9c0-1.6-0.5-3-1.6-4.1c-1.1-1.1-2.5-1.6-4.2-1.6h-8.7
					c-2.3,0-4.4-0.4-6.2-1.1c-1.9-0.8-3.5-1.8-4.8-3.1c-1.3-1.3-2.4-2.9-3.1-4.8c-0.8-1.8-1.1-3.8-1.1-5.9c0-0.3,0-0.7,0-1.1
					c0-0.4,0.1-1,0.2-1.7c0.1-0.7,0.3-1.7,0.5-2.9s0.6-2.8,1-4.8c0.5-2.6,1.6-5.1,3.1-7.4c1.5-2.3,3.3-4.3,5.3-6
					c2.1-1.7,4.4-3.1,6.9-4.1c2.5-1,5.1-1.5,7.7-1.5H556c0.6,0,1.1,0.2,1.4,0.5s0.5,0.7,0.5,1.2c0,0.1,0,0.1,0,0.2s0,0.4-0.1,0.7
					c-0.1,0.4-0.2,1-0.4,1.8c-0.2,0.8-0.4,1.9-0.7,3.3c-0.1,0.6-0.4,1.1-1,1.6c-0.5,0.5-1.1,0.7-1.8,0.7h-19.3c-1,0-2,0.2-2.9,0.6
					c-1,0.4-1.9,0.9-2.6,1.5c-0.8,0.7-1.5,1.4-2,2.3c-0.6,0.9-1,1.8-1.2,2.8l-2.1,9.9c-0.1,0.3-0.1,0.5-0.1,0.7c0,0.2,0,0.5,0,0.7
					c0,1.6,0.5,3,1.6,4.1c1.1,1.1,2.5,1.7,4.3,1.7H538.1z"/>
				<path class="st4" d="M618.4,294.6c-0.3,1.6-1,3.2-1.9,4.6c-0.9,1.4-2,2.7-3.3,3.7c-1.3,1.1-2.7,1.9-4.2,2.5
					c-1.5,0.6-3.1,0.9-4.8,0.9H597c-3.6,0-6.9-0.6-9.9-1.8c-3-1.2-5.6-2.8-7.7-4.8l-7.5,35c-0.1,0.7-0.4,1.2-1,1.6
					c-0.6,0.4-1.2,0.7-1.8,0.7H562c-0.5,0-1-0.2-1.3-0.5c-0.4-0.3-0.5-0.8-0.5-1.3c0-0.1,0-0.2,0-0.2c0-0.1,0-0.1,0-0.2l19.1-89.8
					c0.5-2.6,1.5-5.1,3-7.4c1.5-2.3,3.2-4.3,5.3-6c2.1-1.7,4.4-3.1,6.9-4.1c2.5-1,5.1-1.5,7.7-1.5H614c2.3,0,4.4,0.4,6.3,1.1
					c1.9,0.8,3.5,1.8,4.8,3.2c1.3,1.4,2.4,2.9,3.1,4.8c0.8,1.8,1.1,3.8,1.1,6c0,0.7,0,1.3-0.1,1.9c-0.1,0.6-0.2,1.3-0.3,2
					L618.4,294.6z M617.6,243.3c0.1-0.3,0.1-0.5,0.1-0.8c0-0.2,0-0.5,0-0.8c0-1.6-0.5-3-1.6-4.1c-1.1-1.1-2.5-1.6-4.2-1.6h-11.7
					c-1,0-2,0.2-2.9,0.6c-1,0.4-1.9,0.9-2.6,1.5c-0.8,0.7-1.5,1.4-2,2.3c-0.6,0.9-1,1.8-1.2,2.8l-9.1,43.1c-0.2,0.8-0.2,1.5-0.2,2.1
					c0,2.3,0.7,4.2,2.2,5.7c1.5,1.5,3.5,2.2,5.9,2.2H604c0.7,0,1.2-0.2,1.8-0.7c0.5-0.5,0.9-1,1.1-1.7L617.6,243.3z"/>
				<path class="st4" d="M649.1,245c0.5-2.6,1.5-5.1,3-7.4c1.5-2.3,3.2-4.3,5.3-6c2.1-1.7,4.4-3.1,6.9-4.1c2.5-1,5.1-1.5,7.7-1.5
					h11.7c2.3,0,4.4,0.4,6.3,1.1c1.9,0.8,3.5,1.8,4.8,3.2c1.3,1.4,2.4,2.9,3.1,4.8c0.8,1.8,1.1,3.8,1.1,6c0,0.7,0,1.3-0.1,1.9
					s-0.2,1.3-0.3,2l-4.6,21.6c-0.3,1.6-1,3.2-1.9,4.6c-0.9,1.4-2,2.7-3.3,3.7s-2.7,1.9-4.3,2.5c-1.5,0.6-3.1,0.9-4.8,0.9h-7.2
					c-3.6,0-6.9-0.6-9.9-1.8c-3-1.2-5.6-2.8-7.7-4.8l-5,23.8c0,0.6,0.3,0.9,0.9,0.9H676c0.5,0,1,0.2,1.3,0.5
					c0.4,0.4,0.5,0.8,0.5,1.3c0,0.1,0,0.2,0,0.2c0,0,0,0.1,0,0.2l-1.2,5.5c-0.1,0.6-0.4,1.1-1,1.6c-0.5,0.5-1.1,0.7-1.7,0.7h-26.4
					c-2.8,0-5-0.9-6.7-2.6c-1.7-1.8-2.6-4-2.6-6.6c0-0.8,0.1-1.6,0.2-2.4L649.1,245z M686.8,246.2c0.2-0.7,0.2-1.4,0.2-2
					c0-2.3-0.7-4.2-2.2-5.7c-1.5-1.5-3.5-2.3-5.9-2.3h-9c-1,0-2,0.2-2.9,0.6s-1.9,0.9-2.6,1.5c-0.8,0.7-1.5,1.4-2,2.3
					c-0.6,0.9-1,1.8-1.2,2.8l-3.2,15c-0.2,0.8-0.2,1.5-0.2,2.1c0,2.3,0.7,4.2,2.2,5.7c1.5,1.5,3.5,2.2,5.9,2.2h13.8
					c0.7,0,1.2-0.2,1.8-0.7c0.5-0.5,0.9-1,1.1-1.7L686.8,246.2z"/>
				<path class="st4" d="M719.5,228.3c0.2-0.7,0.5-1.2,1.1-1.6c0.5-0.4,1.1-0.7,1.7-0.7h5.5c0.5,0,1,0.2,1.3,0.5
					c0.4,0.3,0.5,0.8,0.5,1.3c0,0.2,0,0.4-0.1,0.5l-1.1,5.5c3.3-2.5,6.8-4.5,10.6-5.9c3.8-1.4,7.7-2.1,11.8-2.1
					c2.3,0,4.4,0.4,6.3,1.1c1.9,0.8,3.5,1.8,4.8,3.1c1.3,1.3,2.4,2.9,3.1,4.7c0.8,1.8,1.1,3.8,1.1,5.9c0,0.6,0,1.2-0.1,1.9
					c-0.1,0.7-0.2,1.3-0.3,2l-2.1,9.9c-0.1,0.7-0.4,1.2-1,1.6c-0.6,0.4-1.2,0.7-1.8,0.7h-7.2c-0.5,0-1-0.2-1.3-0.5
					c-0.4-0.3-0.5-0.8-0.5-1.3c0-0.1,0-0.2,0-0.2c0-0.1,0-0.1,0-0.2l2.1-9.8c0.1-0.3,0.1-0.5,0.1-0.7c0-0.2,0-0.4,0-0.7
					c0-1-0.2-2-0.7-2.9c-0.4-0.9-1-1.7-1.8-2.3c-0.8-0.7-1.6-1.2-2.6-1.5c-1-0.4-2.1-0.5-3.2-0.5h-10.1c-1.7,0-3.3,0.6-4.8,1.8
					c-1.4,1.2-2.3,2.7-2.7,4.4l-13.2,61.9c-0.1,0.7-0.4,1.2-1,1.6c-0.5,0.4-1.1,0.7-1.7,0.7h-7.2c-0.5,0-1-0.2-1.3-0.5
					c-0.4-0.4-0.5-0.8-0.5-1.3v-0.4L719.5,228.3z"/>
				<path class="st4" d="M785.9,226.1l4.1-19.2c0.3-1.1,0.8-2,1.5-2.8l8.1-8.1c0.2-0.2,0.4-0.3,0.7-0.4c0.2-0.1,0.5-0.2,0.7-0.2h0.3
					c0.7,0,1.2,0.2,1.6,0.7c0.4,0.4,0.7,1,0.7,1.5c0,0.1,0,0.1,0,0.2c0,0.1-0.1,0.4-0.2,1c-0.1,0.5-0.3,1.4-0.5,2.6
					c-0.2,1.2-0.6,2.8-1.1,4.9c-0.5,2.1-1,4.8-1.7,8c-0.7,3.2-1.5,7.2-2.5,11.8h18.4c0.8,0,1.2,0.2,1.5,0.7c0.2,0.5,0.3,1,0.3,1.6
					l-1.1,5.4c-0.1,0.6-0.4,1.1-1,1.6c-0.5,0.5-1.1,0.7-1.8,0.7h-18.4L781,304.1c-0.1,0.7-0.4,1.2-1,1.6c-0.5,0.4-1.1,0.7-1.7,0.7
					h-7.2c-0.5,0-1-0.2-1.3-0.5c-0.4-0.4-0.5-0.8-0.5-1.3v-0.4l14.5-68.1H776c-0.6,0-1.1-0.2-1.4-0.5c-0.3-0.4-0.5-0.8-0.5-1.3
					c0-0.1,0-0.2,0-0.2c0-0.1,0-0.1,0-0.2l1.1-5.4c0.1-0.6,0.4-1.1,1-1.6c0.5-0.5,1.1-0.7,1.8-0.7H785.9z"/>
			</g>
			<g>
				<path class="st5" d="M335,449.8c-0.3,1.6-1,3.2-1.9,4.6c-0.9,1.4-2,2.7-3.3,3.7c-1.3,1.1-2.7,1.9-4.2,2.5
					c-1.5,0.6-3.1,0.9-4.8,0.9h-7.2c-3.6,0-6.9-0.6-9.9-1.8c-3-1.2-5.6-2.8-7.7-4.8l-7.5,35c-0.1,0.7-0.4,1.2-1,1.6
					c-0.6,0.4-1.2,0.7-1.8,0.7h-7.2c-0.5,0-1-0.2-1.3-0.5c-0.4-0.3-0.5-0.8-0.5-1.3c0-0.1,0-0.2,0-0.2c0-0.1,0-0.1,0-0.2l19.1-89.8
					c0.5-2.6,1.5-5.1,3-7.4c1.5-2.3,3.2-4.3,5.3-6c2.1-1.7,4.4-3.1,6.9-4.1c2.5-1,5.1-1.5,7.7-1.5h11.7c2.3,0,4.4,0.4,6.3,1.1
					c1.9,0.8,3.5,1.8,4.8,3.2c1.3,1.4,2.4,2.9,3.1,4.8c0.8,1.8,1.1,3.8,1.1,6c0,0.7,0,1.3-0.1,1.9s-0.2,1.3-0.3,2L335,449.8z
					 M334.2,398.4c0.1-0.3,0.1-0.5,0.1-0.8c0-0.2,0-0.5,0-0.8c0-1.6-0.5-3-1.6-4.1c-1.1-1.1-2.5-1.6-4.2-1.6h-11.7
					c-1,0-2,0.2-2.9,0.6c-1,0.4-1.9,0.9-2.6,1.5c-0.8,0.7-1.5,1.4-2,2.3c-0.6,0.9-1,1.8-1.2,2.8l-9.1,43.1c-0.2,0.8-0.2,1.5-0.2,2.1
					c0,2.3,0.7,4.2,2.2,5.7c1.5,1.5,3.5,2.2,5.9,2.2h13.8c0.7,0,1.2-0.2,1.8-0.7c0.5-0.5,0.9-1,1.1-1.7L334.2,398.4z"/>
				<path class="st5" d="M381.4,333.8c0.1-0.7,0.4-1.2,1-1.6s1.2-0.7,1.8-0.7h7.2c0.5,0,1,0.2,1.3,0.5c0.4,0.3,0.5,0.8,0.5,1.3
					c-0.1,0.4-0.2,1-0.4,2c-0.2,0.9-0.5,2.4-0.9,4.4c-0.4,2-1,4.8-1.8,8.5c-0.8,3.7-1.8,8.3-3,14c-1.2,5.6-2.7,12.6-4.4,20.8
					c-1.8,8.3-3.8,17.9-6.2,29.1c-2.4,11.1-5.1,24-8.2,38.6c0,0.6,0.3,0.9,0.9,0.9h15.6c0.6,0,1.1,0.2,1.4,0.5
					c0.3,0.4,0.5,0.8,0.5,1.3c0,0.1,0,0.2,0,0.2c0,0.1,0,0.1,0,0.2l-1.2,5.5c-0.1,0.6-0.4,1.1-0.9,1.6c-0.5,0.5-1.1,0.7-1.8,0.7
					h-16.9c-2.8,0-5.1-0.9-6.8-2.6c-1.7-1.8-2.6-4-2.6-6.6c0-0.8,0.1-1.6,0.2-2.4L381.4,333.8z"/>
				<path class="st5" d="M433.2,455c-3.1,2.1-6.4,3.7-9.8,4.8c-3.4,1.1-6.9,1.7-10.5,1.7h-7.3c-2.9,0-5.2-0.9-6.9-2.6
					c-1.7-1.8-2.6-4-2.6-6.6c0-0.8,0.1-1.6,0.2-2.4L407,400c0.5-2.7,1.6-5.1,3.1-7.5c1.5-2.3,3.3-4.3,5.4-6c2.1-1.7,4.4-3.1,6.9-4.1
					c2.5-1,5.1-1.5,7.8-1.5c3.1,0,5.9,0.4,8.2,1.2c2.3,0.8,4.3,1.7,5.8,2.7s2.7,1.9,3.5,2.7c0.8,0.8,1.2,1.3,1.3,1.4l1.1-5
					c0.1-0.7,0.4-1.2,1-1.6c0.6-0.4,1.2-0.7,1.8-0.7h5.5c0.5,0,1,0.2,1.3,0.5c0.4,0.3,0.5,0.8,0.5,1.3c0,0.1,0,0.2-0.1,0.4
					c-0.1,0.2-0.2,1-0.5,2.2c-0.3,1.3-0.7,3.3-1.3,6s-1.4,6.6-2.5,11.6c-1.1,5-2.4,11.4-4.1,19.1c-1.6,7.7-3.6,17.2-6,28.5h7.7
					c0.6,0,1.1,0.2,1.4,0.5c0.3,0.4,0.5,0.8,0.5,1.3c0,0.1,0,0.1,0,0.2c0,0.1-0.1,0.3-0.2,0.7c-0.1,0.4-0.2,1-0.4,1.8
					c-0.2,0.8-0.4,1.9-0.7,3.3c-0.2,0.6-0.5,1.1-1,1.6c-0.5,0.5-1.1,0.7-1.8,0.7h-17.2c-0.5,0-1-0.2-1.3-0.5
					c-0.4-0.3-0.5-0.8-0.5-1.3c0-0.2,0-0.4,0.1-0.5L433.2,455z M445.5,397.4c0.1-0.5,0.2-1,0.2-1.3c0-1.4-0.5-2.6-1.4-3.5
					c-0.9-0.9-2.1-1.4-3.7-1.4h-9.9c-1.4,0-2.8,0.3-4.1,0.8c-1.3,0.5-2.6,1.3-3.7,2.2c-1.1,0.9-2.1,2-2.8,3.2
					c-0.8,1.2-1.3,2.6-1.6,3.9l-10.2,47.9c-0.1,0.1-0.1,0.3-0.1,0.6c0,0.5,0.2,1,0.5,1.3c0.4,0.4,0.8,0.5,1.4,0.5H424
					c1.4,0,2.7-0.3,4-0.8c1.3-0.5,2.6-1.3,3.7-2.2c1.1-0.9,2-2,2.8-3.2c0.8-1.2,1.3-2.5,1.6-3.9L445.5,397.4z"/>
				<path class="st5" d="M500.2,455c-3.1,2.1-6.4,3.7-9.8,4.8c-3.4,1.1-6.9,1.7-10.5,1.7h-7.3c-2.9,0-5.2-0.9-6.9-2.6
					c-1.7-1.8-2.6-4-2.6-6.6c0-0.8,0.1-1.6,0.2-2.4l10.6-49.8c0.5-2.7,1.6-5.1,3.1-7.5c1.5-2.3,3.3-4.3,5.4-6
					c2.1-1.7,4.4-3.1,6.9-4.1c2.5-1,5.1-1.5,7.8-1.5c3.1,0,5.9,0.4,8.2,1.2c2.3,0.8,4.3,1.7,5.8,2.7c1.5,1,2.7,1.9,3.5,2.7
					c0.8,0.8,1.2,1.3,1.3,1.4l1.1-5c0.1-0.7,0.4-1.2,1-1.6c0.6-0.4,1.2-0.7,1.8-0.7h5.5c0.5,0,1,0.2,1.3,0.5
					c0.4,0.3,0.5,0.8,0.5,1.3c0,0.1,0,0.2-0.1,0.4c-0.1,0.2-0.2,1-0.5,2.2c-0.3,1.3-0.7,3.3-1.3,6c-0.6,2.7-1.4,6.6-2.5,11.6
					c-1.1,5-2.4,11.4-4.1,19.1s-3.6,17.2-6,28.5h7.7c0.6,0,1.1,0.2,1.4,0.5c0.3,0.4,0.5,0.8,0.5,1.3c0,0.1,0,0.1,0,0.2
					c0,0.1-0.1,0.3-0.2,0.7c-0.1,0.4-0.2,1-0.4,1.8c-0.2,0.8-0.4,1.9-0.7,3.3c-0.2,0.6-0.5,1.1-1,1.6c-0.5,0.5-1.1,0.7-1.8,0.7
					h-17.2c-0.5,0-1-0.2-1.3-0.5c-0.4-0.3-0.5-0.8-0.5-1.3c0-0.2,0-0.4,0.1-0.5L500.2,455z M512.4,397.4c0.1-0.5,0.2-1,0.2-1.3
					c0-1.4-0.5-2.6-1.4-3.5c-0.9-0.9-2.1-1.4-3.7-1.4h-9.9c-1.4,0-2.8,0.3-4.1,0.8c-1.3,0.5-2.6,1.3-3.7,2.2c-1.1,0.9-2.1,2-2.8,3.2
					c-0.8,1.2-1.3,2.6-1.6,3.9l-10.2,47.9c-0.1,0.1-0.1,0.3-0.1,0.6c0,0.5,0.2,1,0.5,1.3c0.4,0.4,0.8,0.5,1.4,0.5h13.8
					c1.4,0,2.7-0.3,4-0.8c1.3-0.5,2.6-1.3,3.7-2.2c1.1-0.9,2-2,2.8-3.2c0.8-1.2,1.3-2.5,1.6-3.9L512.4,397.4z"/>
				<path class="st5" d="M545.1,392.9c0.3-1.6,0.9-3.1,1.9-4.6c0.9-1.4,2-2.6,3.3-3.7c1.3-1.1,2.7-1.9,4.2-2.5
					c1.5-0.6,3.1-0.9,4.8-0.9h7.2c3.6,0,6.9,0.6,9.9,1.8c3,1.2,5.6,2.8,7.7,4.8l11.5-54c0.2-0.7,0.5-1.2,1.1-1.6s1.1-0.7,1.7-0.7
					h7.2c0.5,0,1,0.2,1.3,0.5c0.4,0.3,0.5,0.8,0.5,1.3c-0.1,0.3-0.2,0.9-0.4,1.8c-0.2,0.9-0.5,2.2-0.9,4.1c-0.4,1.9-0.9,4.5-1.7,7.9
					c-0.7,3.4-1.7,7.8-2.8,13c-1.1,5.3-2.5,11.7-4.1,19.4c-1.6,7.7-3.6,16.7-5.8,27c-2.2,10.4-4.8,22.4-7.7,36
					c-0.5,2.6-1.6,5.1-3.1,7.4c-1.5,2.3-3.3,4.3-5.3,6s-4.4,3.1-6.9,4.1c-2.5,1-5.1,1.5-7.7,1.5h-11.7c-2.3,0-4.4-0.4-6.3-1.1
					c-1.9-0.8-3.5-1.8-4.8-3.1c-1.3-1.3-2.4-2.9-3.1-4.8c-0.8-1.8-1.1-3.9-1.1-6c0-0.7,0-1.3,0.1-1.9c0.1-0.6,0.2-1.3,0.3-2
					L545.1,392.9z M545.9,444.3c-0.1,0.3-0.1,0.5-0.1,0.8c0,0.2,0,0.5,0,0.8c0,1.6,0.5,3,1.6,4.1c1.1,1.1,2.5,1.6,4.2,1.6h11.7
					c1,0,2-0.2,2.9-0.6s1.9-0.9,2.6-1.5c0.8-0.7,1.5-1.4,2-2.3c0.6-0.9,1-1.8,1.2-2.8l9.1-43.1c0.2-0.7,0.2-1.4,0.2-2
					c0-2.3-0.7-4.2-2.2-5.7c-1.5-1.5-3.5-2.3-5.9-2.3h-13.8c-0.6,0-1.3,0.2-1.8,0.7c-0.6,0.5-0.9,1-1,1.7L545.9,444.3z"/>
				<path class="st5" d="M616.6,392h-4.5c-0.7,0-1.2-0.2-1.6-0.6c-0.4-0.4-0.6-0.9-0.6-1.5c0-0.3,0-0.5,0.1-0.6l1.1-5.4
					c0.2-0.8,0.6-1.4,1.2-1.9c0.6-0.5,1.3-0.8,2.1-0.9h14c0.5,0,1,0.2,1.3,0.5c0.4,0.3,0.5,0.8,0.5,1.3c0,0.2,0,0.4-0.1,0.5
					l-16.1,75.8c-0.1,0.7-0.4,1.2-1,1.6c-0.5,0.4-1.1,0.7-1.7,0.7h-7.2c-0.5,0-1-0.2-1.3-0.5c-0.4-0.4-0.5-0.8-0.5-1.3v-0.4
					L616.6,392z M624.6,355c0.3-1.2,0.9-2.3,2-3.2s2.2-1.3,3.4-1.3h2.8c1.1,0,2,0.3,2.6,1c0.7,0.7,1,1.5,1,2.6c0,0.4,0,0.7-0.1,0.9
					l-2.2,10c-0.3,1.2-0.9,2.3-2,3.2c-1,0.9-2.2,1.3-3.4,1.3H626c-1.1,0-2-0.3-2.6-1c-0.7-0.7-1-1.5-1-2.6c0-0.4,0-0.7,0.1-0.9
					L624.6,355z"/>
				<path class="st5" d="M678.7,381.6c3.4,0,6.4,0.7,8.9,2.2c2.5,1.5,4.3,3.6,5.4,6.2c2.8-2.5,6.2-4.6,10.2-6.4
					c4-1.8,8.6-2.7,13.8-2.7c1.9,0,3.6,0.4,5.2,1.1c1.5,0.7,2.9,1.7,4,3c1.1,1.3,2,2.8,2.6,4.5c0.6,1.7,0.9,3.6,0.9,5.7
					c0,1.5-0.2,3-0.5,4.6l-12.6,59.4c-0.1,0.7-0.4,1.2-1,1.6c-0.5,0.4-1.1,0.7-1.7,0.7h-7.2c-0.5,0-1-0.2-1.3-0.5
					c-0.4-0.4-0.5-0.8-0.5-1.3v-0.4l12.1-56.3c0.2-0.8,0.2-1.6,0.2-2.4c0-2.7-0.9-4.9-2.6-6.7c-1.7-1.8-4-2.7-6.9-2.7h-5.8
					c-1.7,0-3.3,0.6-4.7,1.7c-1.5,1.1-2.4,2.6-2.7,4.2c-0.2,1-0.8,3.9-1.8,8.5c-0.4,2-1,4.5-1.6,7.5c-0.6,3-1.4,6.7-2.3,11
					c-0.9,4.3-2,9.4-3.2,15.1s-2.6,12.4-4.2,19.9c-0.1,0.7-0.4,1.2-1,1.6c-0.5,0.4-1.1,0.7-1.7,0.7h-7.2c-0.5,0-1-0.2-1.3-0.5
					c-0.4-0.4-0.5-0.8-0.5-1.3v-0.4l12.9-60.8c0.1-0.3,0.1-0.5,0.1-0.8c0-0.2,0-0.5,0-0.8c0-1.6-0.5-3-1.6-4.1
					c-1.1-1.1-2.5-1.6-4.2-1.6h-9.1c-1,0-2,0.2-2.9,0.6c-1,0.4-1.9,0.9-2.6,1.5c-0.8,0.7-1.5,1.4-2,2.3c-0.6,0.9-1,1.8-1.2,2.8
					l-12.9,60.8c-0.1,0.7-0.4,1.2-1,1.6c-0.5,0.4-1.1,0.7-1.7,0.7h-7.2c-0.5,0-1-0.2-1.3-0.5c-0.4-0.4-0.5-0.8-0.5-1.3v-0.4
					l12.6-59.1c0.5-2.6,1.5-5,3-7.3c1.5-2.3,3.2-4.2,5.3-5.9c2.1-1.7,4.4-3,6.9-3.9c2.5-0.9,5.1-1.4,7.7-1.4H678.7z"/>
				<path class="st5" d="M746.2,400.1c0.5-2.6,1.5-5.1,3-7.4c1.5-2.3,3.2-4.3,5.3-6c2.1-1.7,4.4-3.1,6.9-4.1c2.5-1,5.1-1.5,7.7-1.5
					h11.7c2.3,0,4.4,0.4,6.3,1.1c1.9,0.8,3.5,1.8,4.8,3.2c1.3,1.4,2.4,2.9,3.1,4.8c0.8,1.8,1.1,3.8,1.1,6c0,0.7,0,1.3-0.1,1.9
					s-0.2,1.3-0.3,2l-4.6,21.6c-0.3,1.6-1,3.2-1.9,4.6c-0.9,1.4-2,2.7-3.3,3.7s-2.7,1.9-4.3,2.5c-1.5,0.6-3.1,0.9-4.8,0.9h-7.2
					c-3.6,0-6.9-0.6-9.9-1.8c-3-1.2-5.6-2.8-7.7-4.8l-5,23.8c0,0.6,0.3,0.9,0.9,0.9h25.1c0.5,0,1,0.2,1.3,0.5
					c0.4,0.4,0.5,0.8,0.5,1.3c0,0.1,0,0.2,0,0.2c0,0,0,0.1,0,0.2l-1.2,5.5c-0.1,0.6-0.4,1.1-1,1.6c-0.5,0.5-1.1,0.7-1.7,0.7h-26.4
					c-2.8,0-5-0.9-6.7-2.6c-1.7-1.8-2.6-4-2.6-6.6c0-0.8,0.1-1.6,0.2-2.4L746.2,400.1z M783.9,401.4c0.2-0.7,0.2-1.4,0.2-2
					c0-2.3-0.7-4.2-2.2-5.7c-1.5-1.5-3.5-2.3-5.9-2.3h-9c-1,0-2,0.2-2.9,0.6s-1.9,0.9-2.6,1.5c-0.8,0.7-1.5,1.4-2,2.3
					c-0.6,0.9-1,1.8-1.2,2.8l-3.2,15c-0.2,0.8-0.2,1.5-0.2,2.1c0,2.3,0.7,4.2,2.2,5.7c1.5,1.5,3.5,2.2,5.9,2.2h13.8
					c0.7,0,1.2-0.2,1.8-0.7s0.9-1,1.1-1.7L783.9,401.4z"/>
				<path class="st5" d="M813.2,400.1c0.5-2.6,1.5-5.1,3-7.4c1.5-2.3,3.2-4.3,5.3-6c2.1-1.7,4.4-3.1,6.9-4.1c2.5-1,5.1-1.5,7.7-1.5
					h11.7c2.3,0,4.4,0.4,6.3,1.1c1.9,0.8,3.5,1.8,4.8,3.2c1.3,1.4,2.4,2.9,3.1,4.8c0.8,1.8,1.1,3.8,1.1,6c0,0.7,0,1.3-0.1,1.9
					s-0.2,1.3-0.3,2l-4.6,21.6c-0.3,1.6-1,3.2-1.9,4.6c-0.9,1.4-2,2.7-3.3,3.7s-2.7,1.9-4.3,2.5c-1.5,0.6-3.1,0.9-4.8,0.9h-7.2
					c-3.6,0-6.9-0.6-9.9-1.8c-3-1.2-5.6-2.8-7.7-4.8l-5,23.8c0,0.6,0.3,0.9,0.9,0.9h25.1c0.5,0,1,0.2,1.3,0.5
					c0.4,0.4,0.5,0.8,0.5,1.3c0,0.1,0,0.2,0,0.2c0,0,0,0.1,0,0.2l-1.2,5.5c-0.1,0.6-0.4,1.1-1,1.6c-0.5,0.5-1.1,0.7-1.7,0.7h-26.4
					c-2.8,0-5-0.9-6.7-2.6c-1.7-1.8-2.6-4-2.6-6.6c0-0.8,0.1-1.6,0.2-2.4L813.2,400.1z M850.9,401.4c0.2-0.7,0.2-1.4,0.2-2
					c0-2.3-0.7-4.2-2.2-5.7c-1.5-1.5-3.5-2.3-5.9-2.3h-9c-1,0-2,0.2-2.9,0.6s-1.9,0.9-2.6,1.5c-0.8,0.7-1.5,1.4-2,2.3
					c-0.6,0.9-1,1.8-1.2,2.8l-3.2,15c-0.2,0.8-0.2,1.5-0.2,2.1c0,2.3,0.7,4.2,2.2,5.7c1.5,1.5,3.5,2.2,5.9,2.2h13.8
					c0.7,0,1.2-0.2,1.8-0.7s0.9-1,1.1-1.7L850.9,401.4z"/>
				<path class="st5" d="M900.2,415.6c2.3,0,4.4,0.4,6.3,1.1c1.9,0.8,3.5,1.8,4.8,3.2c1.3,1.4,2.4,2.9,3.1,4.8
					c0.8,1.8,1.1,3.8,1.1,6c0,0.3,0,0.7,0,1.1c0,0.4-0.1,1-0.3,1.8c-0.2,0.8-0.4,1.9-0.7,3.3c-0.3,1.4-0.7,3.3-1.1,5.6
					c-0.5,2.6-1.6,5.1-3.1,7.4c-1.5,2.3-3.3,4.3-5.3,6c-2.1,1.7-4.4,3.1-6.9,4.1c-2.5,1-5.1,1.5-7.7,1.5h-25.6
					c-0.8,0-1.3-0.2-1.5-0.7c-0.2-0.5-0.4-1-0.4-1.6l1.2-5.5c0.1-0.6,0.4-1.1,1-1.6c0.5-0.5,1.1-0.7,1.8-0.7h25.9
					c2.1,0,3.9-0.7,5.6-2.1c1.7-1.4,2.7-3.1,3.1-5.1l2.6-12.9c0-1.6-0.5-3-1.6-4.1c-1.1-1.1-2.5-1.6-4.2-1.6h-8.7
					c-2.3,0-4.4-0.4-6.2-1.1c-1.9-0.8-3.5-1.8-4.8-3.1c-1.3-1.3-2.4-2.9-3.1-4.8c-0.8-1.8-1.1-3.8-1.1-5.9c0-0.3,0-0.7,0-1.1
					c0-0.4,0.1-1,0.2-1.7c0.1-0.7,0.3-1.7,0.5-2.9c0.2-1.2,0.6-2.8,1-4.8c0.5-2.6,1.6-5.1,3.1-7.4c1.5-2.3,3.3-4.3,5.3-6
					c2.1-1.7,4.4-3.1,6.9-4.1c2.5-1,5.1-1.5,7.7-1.5h19.1c0.6,0,1.1,0.2,1.4,0.5c0.3,0.3,0.5,0.7,0.5,1.2c0,0.1,0,0.1,0,0.2
					s0,0.4-0.1,0.7c-0.1,0.4-0.2,1-0.4,1.8c-0.2,0.8-0.4,1.9-0.7,3.3c-0.1,0.6-0.4,1.1-1,1.6c-0.5,0.5-1.1,0.7-1.8,0.7h-19.3
					c-1,0-2,0.2-2.9,0.6c-1,0.4-1.9,0.9-2.6,1.5c-0.8,0.7-1.5,1.4-2,2.3c-0.6,0.9-1,1.8-1.2,2.8l-2.1,9.9c-0.1,0.3-0.1,0.5-0.1,0.7
					c0,0.2,0,0.5,0,0.7c0,1.6,0.5,3,1.6,4.1c1.1,1.1,2.5,1.7,4.3,1.7H900.2z"/>
			</g>
		</g>
	</g>
</g>
</svg>
